<svg xmlns="http://www.w3.org/2000/svg" width="330" height="330" viewBox="0 0 330 330" version="1.1">
	<path d="M 100.500 66.719 C 97.456 67.461, 95 70.056, 95 72.533 C 95 73.755, 94.325 75.315, 93.500 76 C 91.635 77.547, 91.540 80, 93.345 80 C 94.085 80, 95.485 80.879, 96.457 81.953 C 98.151 83.825, 98.132 84.096, 95.994 88.513 C 93.924 92.787, 93.851 93.567, 94.981 99.310 C 97.173 110.458, 102.175 116.600, 113.500 122.053 C 120.551 125.448, 121.699 126.384, 123.176 129.952 C 124.373 132.843, 125.444 134, 126.926 134 C 130.855 134, 128.324 141.671, 124.079 142.631 C 122.660 142.951, 119.670 144.065, 117.434 145.107 C 115.198 146.148, 112.723 147.003, 111.934 147.007 C 109.821 147.018, 93.209 152.765, 88 155.287 C 85.525 156.485, 83.118 157.638, 82.651 157.849 C 82.183 158.060, 82.542 157.103, 83.446 155.722 C 86.663 150.813, 82.849 145, 76.412 145 C 73.178 145, 68.701 147.822, 67.054 150.898 C 65.675 153.476, 67.828 160.719, 70.629 162.923 C 73.591 165.253, 73.581 165.549, 70.402 169.717 C 68.789 171.832, 67.728 174.604, 67.603 177.027 C 67.493 179.174, 67.087 181.246, 66.701 181.632 C 65.328 183.006, 66.034 189.388, 68.225 195.397 C 69.907 200.013, 71.979 203.044, 76.725 207.838 C 83.514 214.695, 84.385 217.528, 81.855 224.525 C 80.862 227.270, 81.048 228.414, 83.247 233.096 C 86.952 240.986, 88.685 246.709, 89.477 253.676 C 90.297 260.890, 92.003 262.923, 97.904 263.714 C 103.252 264.431, 103.548 263.413, 101.039 252.946 C 98.470 242.230, 98.464 237.322, 101.016 233.500 C 102.118 231.850, 103.483 228.811, 104.049 226.747 C 104.615 224.683, 106.143 222.297, 107.443 221.445 C 109.579 220.046, 110.388 220.046, 115.799 221.448 C 124.363 223.667, 127.740 223.426, 143.986 219.437 C 162.547 214.880, 169.323 214.259, 174 216.685 C 177.191 218.340, 177.830 219.471, 181.239 229.500 C 184.263 238.396, 184.980 241.962, 184.989 248.142 C 185 255.455, 185.107 255.810, 187.500 256.411 C 188.875 256.756, 190 257.649, 190 258.397 C 190 260.215, 191.899 261.686, 195.374 262.558 L 198.236 263.276 197.621 258.888 C 195.854 246.278, 195.814 238.418, 197.488 232.500 C 198.422 229.200, 199.412 225.313, 199.690 223.863 C 200.379 220.255, 206.966 214.214, 216.259 208.665 C 223.717 204.212, 224.241 204.056, 229.801 204.637 C 236.516 205.339, 249.600 202.386, 256.371 198.639 C 262.259 195.383, 266.283 187, 261.960 187 C 258.877 187, 254.236 183.105, 250.945 177.756 C 247.584 172.294, 247.135 169.003, 249.750 168.993 C 250.713 168.990, 252.850 168.063, 254.500 166.934 C 256.150 165.805, 258.549 164.455, 259.831 163.934 C 262.705 162.768, 262.188 160.621, 258.922 160.154 C 257.590 159.963, 256.128 159.155, 255.674 158.357 C 254.447 156.202, 233.888 156.545, 234.718 158.706 C 235.599 161.003, 230.925 159.900, 229.602 157.500 C 228.996 156.400, 228.398 155.323, 228.274 155.107 C 228.150 154.892, 227.382 155.268, 226.568 155.944 C 225.754 156.619, 224.594 156.867, 223.990 156.494 C 223.387 156.121, 220.176 156.131, 216.856 156.517 L 210.818 157.217 211.494 160.859 C 211.865 162.861, 212.807 165.212, 213.587 166.081 C 215.518 168.235, 214.336 169.110, 211.340 167.745 C 209.422 166.871, 208.923 165.949, 209.078 163.562 C 209.493 157.172, 208.629 156.666, 194.348 154.931 C 190.032 154.407, 181.857 153.395, 176.182 152.682 C 166.503 151.468, 165.803 151.499, 164.896 153.194 C 163.755 155.326, 162 155.586, 162 153.622 C 162 151.123, 158.764 149.500, 153.756 149.489 C 150.429 149.481, 148.444 148.964, 147.661 147.899 C 146.907 146.874, 144.074 146.073, 139.582 145.615 C 131.560 144.797, 131 144.555, 131 141.909 C 131 136.669, 133.692 133.290, 140.387 130.127 C 148.293 126.392, 157 120.310, 157 118.523 C 157 117.814, 155.988 116.965, 154.750 116.637 C 152.713 116.097, 152.992 115.708, 157.711 112.520 C 160.576 110.584, 163.389 109, 163.961 109 C 164.532 109, 165 107.963, 165 106.696 C 165 105.365, 166.507 102.937, 168.568 100.946 C 171.354 98.256, 172.025 96.934, 171.628 94.921 C 171.235 92.931, 171.821 91.725, 174.191 89.645 C 177.095 87.097, 177.172 86.847, 175.589 85.098 C 174.022 83.366, 174.022 83.205, 175.600 82.600 C 176.527 82.244, 177.001 81.667, 176.652 81.318 C 176.303 80.970, 176.559 80.031, 177.221 79.234 C 178.175 78.085, 178.103 77.547, 176.874 76.642 C 176.022 76.014, 175.514 74.938, 175.746 74.250 C 175.988 73.530, 175.329 73, 174.190 73 C 173.103 73, 171.955 72.325, 171.638 71.500 C 170.547 68.656, 167.702 70.019, 161.421 76.394 C 156.109 81.785, 154.052 83.136, 148.310 85.009 C 139.787 87.790, 130.069 88.685, 126.129 87.054 C 124.516 86.385, 121.120 83.166, 118.583 79.899 C 115.657 76.131, 112.358 73.176, 109.559 71.817 C 107.133 70.638, 104.932 68.847, 104.668 67.837 C 104.174 65.951, 103.926 65.885, 100.500 66.719 M 148.459 120.067 C 148.096 120.653, 148.005 121.339, 148.257 121.590 C 148.954 122.288, 152 120.907, 152 119.893 C 152 118.641, 149.257 118.776, 148.459 120.067 M 73.750 150.080 C 71.301 151.507, 71.571 153.673, 74.433 155.548 C 76.325 156.788, 77.325 156.896, 78.933 156.036 C 81.536 154.643, 81.608 151.396, 79.066 150.035 C 76.702 148.770, 75.988 148.776, 73.750 150.080 M 138.500 150 C 138.840 150.550, 139.316 151, 139.559 151 C 139.802 151, 140 150.550, 140 150 C 140 149.450, 139.523 149, 138.941 149 C 138.359 149, 138.160 149.450, 138.500 150 M 169.425 156.879 C 169.724 157.363, 170.902 158.003, 172.042 158.301 C 173.743 158.746, 173.903 158.588, 172.935 157.421 C 171.670 155.898, 168.518 155.411, 169.425 156.879 M 74.165 159.557 C 75.341 160.759, 76.625 161.060, 78.533 160.581 C 81.866 159.744, 81.575 159.455, 76.500 158.560 C 72.743 157.897, 72.601 157.958, 74.165 159.557 M 222.597 158.844 C 222.251 159.404, 222.455 160.163, 223.050 160.531 C 224.588 161.481, 225.580 160.180, 224.296 158.896 C 223.578 158.178, 223.019 158.161, 222.597 158.844 M 243.200 162.200 C 241.754 163.646, 241.640 165, 242.965 165 C 243.495 165, 244.411 164.100, 245 163 C 246.179 160.797, 245.088 160.312, 243.200 162.200 M 164 167 C 162.835 167.753, 163.128 167.973, 165.309 167.985 C 166.930 167.994, 167.857 167.577, 167.500 167 C 166.733 165.758, 165.921 165.758, 164 167 M 225 175 C 223.172 176.181, 224.751 176.181, 227.500 175 C 228.819 174.433, 228.989 174.122, 228 174.086 C 227.175 174.055, 225.825 174.467, 225 175" stroke="none" fill="black" fill-rule="evenodd"/>
</svg>