<svg xmlns="http://www.w3.org/2000/svg" width="330" height="330" viewBox="0 0 330 330" version="1.1">
	<path d="M 100.500 66.719 C 97.456 67.461, 95 70.056, 95 72.533 C 95 73.755, 94.325 75.315, 93.500 76 C 91.430 77.718, 91.618 80, 93.831 80 C 94.838 80, 96.230 81.061, 96.924 82.358 C 98.002 84.371, 97.874 85.326, 96.051 88.900 C 94.090 92.743, 94.013 93.591, 95.103 99.292 C 97.256 110.547, 102.706 117.142, 114.137 122.322 C 120.866 125.372, 121.915 126.212, 122.964 129.392 C 123.777 131.854, 124.925 133.194, 126.578 133.609 C 127.910 133.943, 129 134.822, 129 135.561 C 129 138.524, 126.526 142.078, 124.079 142.631 C 122.660 142.951, 119.670 144.065, 117.434 145.107 C 115.198 146.148, 112.723 147.004, 111.934 147.009 C 109.747 147.023, 92.050 153.347, 87.290 155.816 C 82.592 158.253, 80.998 158.602, 82.800 156.800 C 83.460 156.140, 84 154.115, 84 152.300 C 84 144.900, 75.494 142.353, 69.798 148.048 C 67.049 150.797, 66.802 151.552, 67.277 155.763 C 67.679 159.332, 68.472 160.965, 70.644 162.697 C 73.469 164.949, 73.475 164.979, 71.688 167.731 C 67.957 173.479, 66.802 177.056, 68.153 178.684 C 69.177 179.918, 69.095 180.367, 67.703 181.146 C 65.304 182.489, 65.521 188.142, 68.250 195.432 C 69.903 199.846, 72.160 203.133, 76.750 207.809 C 82.516 213.683, 83 214.519, 83 218.602 C 83 221.036, 82.468 223.879, 81.818 224.920 C 80.837 226.490, 81.255 228.166, 84.268 234.758 C 86.711 240.103, 88.316 245.582, 89.172 251.501 C 90.346 259.624, 90.677 260.441, 93.472 262.146 C 97.152 264.390, 101.574 264.552, 102.373 262.471 C 102.695 261.630, 102.282 258.368, 101.453 255.221 C 100.625 252.074, 99.665 246.862, 99.319 243.638 C 98.775 238.556, 99.040 237.092, 101.308 232.638 C 102.747 229.812, 104.179 226.247, 104.490 224.715 C 105.319 220.634, 108.691 219.714, 116.271 221.502 C 124.153 223.360, 128.114 223.355, 135 221.475 C 145.947 218.486, 163.247 215, 167.130 215 C 172.699 215, 176.708 217.374, 178.570 221.774 C 182.885 231.974, 185 240.483, 185 247.649 C 185 254.474, 185.184 255.127, 187.390 256.132 C 188.704 256.731, 190.242 258.236, 190.808 259.478 C 191.999 262.091, 196.882 263.471, 197.670 261.417 C 197.952 260.682, 197.692 257.790, 197.092 254.991 C 195.725 248.621, 195.695 238.744, 197.026 233.500 C 200.515 219.754, 202.650 216.938, 215.608 208.992 C 223.787 203.976, 223.918 203.936, 230.181 204.543 C 235.276 205.036, 238.176 204.662, 245.158 202.609 C 256.480 199.278, 260.115 197.160, 262.280 192.630 C 264.228 188.555, 263.879 187, 261.018 187 C 258.296 187, 253.503 182.595, 250.627 177.449 C 247.040 171.031, 246.896 168.805, 250.043 168.460 C 253.249 168.108, 262.030 162.837, 261.639 161.500 C 261.478 160.950, 260.176 160.361, 258.746 160.191 C 257.316 160.020, 255.608 159.233, 254.951 158.441 C 254.087 157.399, 251.467 157, 245.500 157 C 238.239 157, 237.077 157.252, 235.859 159.086 C 234.628 160.940, 234.168 161.034, 231.737 159.926 C 230.198 159.225, 229 157.874, 229 156.839 C 229 154.827, 227.505 154.373, 226.458 156.068 C 226.095 156.656, 225.095 156.867, 224.236 156.537 C 223.377 156.207, 220.047 156.235, 216.837 156.598 C 210.176 157.352, 209.774 158.173, 212.985 164.470 C 215.334 169.078, 214.861 169.994, 211.193 167.933 C 208.949 166.672, 208.500 165.733, 208.500 162.296 C 208.500 160.027, 208.207 157.878, 207.850 157.519 C 207.492 157.160, 203.892 156.443, 199.850 155.927 C 195.807 155.410, 189.800 154.498, 186.500 153.900 C 176.290 152.051, 165.261 151.876, 164.618 153.554 C 163.932 155.341, 162 155.466, 162 153.722 C 162 153.019, 161.054 151.634, 159.897 150.644 C 158.108 149.112, 157.361 149.022, 154.899 150.042 C 152.336 151.103, 151.632 150.958, 148.752 148.778 C 146.458 147.040, 143.634 146.123, 139.165 145.664 C 131.769 144.904, 131 144.550, 131 141.909 C 131 136.487, 133.729 133.158, 141.179 129.491 C 151.183 124.566, 156.925 120.344, 156.985 117.867 C 156.993 117.518, 155.988 116.967, 154.750 116.641 L 152.500 116.049 155 114.315 C 156.375 113.362, 158.094 112.002, 158.820 111.292 C 159.546 110.583, 161.233 109.729, 162.570 109.393 C 164.314 108.955, 165 108.093, 165 106.341 C 165 104.796, 166.378 102.636, 168.749 100.463 C 171.975 97.508, 172.334 96.765, 171.320 95.141 C 170.313 93.529, 170.644 92.768, 173.600 89.903 L 177.057 86.552 174.779 84.798 C 172.750 83.237, 172.704 83.042, 174.357 83.022 C 175.578 83.008, 176.020 82.495, 175.649 81.526 C 175.338 80.716, 175.852 79.591, 176.792 79.027 C 178.344 78.095, 178.355 77.888, 176.912 76.751 C 176.039 76.063, 175.514 74.938, 175.746 74.250 C 176.010 73.464, 175.208 73, 173.583 73 C 171.954 73, 171 72.446, 171 71.500 C 171 68.516, 167.471 70.108, 162.537 75.319 C 155.732 82.504, 153.505 83.802, 143.310 86.523 C 130.223 90.016, 125.147 88.639, 118.295 79.733 C 115.226 75.745, 112.282 73.128, 109.464 71.881 C 107.070 70.822, 105.009 69.141, 104.712 68.005 C 104.174 65.951, 103.944 65.880, 100.500 66.719 M 150 103 C 150 103.550, 150.477 104, 151.059 104 C 151.641 104, 151.840 103.550, 151.500 103 C 151.160 102.450, 150.684 102, 150.441 102 C 150.198 102, 150 102.450, 150 103 M 148.439 120.067 C 147.021 121.634, 146.967 122, 148.154 122 C 148.959 122, 150.442 121.397, 151.449 120.661 C 153.034 119.502, 153.072 119.242, 151.734 118.728 C 150.859 118.392, 149.429 118.974, 148.439 120.067 M 73.200 150.200 C 71.253 152.147, 71.818 154.565, 74.565 156.035 C 77.460 157.584, 80.262 156.493, 80.833 153.595 C 81.568 149.855, 76.015 147.385, 73.200 150.200 M 138.500 150 C 138.840 150.550, 139.316 151, 139.559 151 C 139.802 151, 140 150.550, 140 150 C 140 149.450, 139.523 149, 138.941 149 C 138.359 149, 138.160 149.450, 138.500 150 M 166.500 155.732 C 167.600 156.007, 168.725 156.569, 169 156.981 C 169.275 157.393, 170.510 158.046, 171.744 158.431 C 173.472 158.970, 173.858 158.794, 173.425 157.664 C 172.821 156.090, 169.743 154.964, 166.500 155.130 L 164.500 155.232 166.500 155.732 M 72.581 158.351 C 73.336 160.318, 76.371 161.334, 79 160.500 C 81.859 159.592, 81.468 158.512, 78.250 158.428 C 76.737 158.389, 74.707 158.002, 73.739 157.567 C 72.384 156.960, 72.117 157.140, 72.581 158.351 M 222.667 158.667 C 221.516 159.817, 221.938 161, 223.500 161 C 224.325 161, 225 160.325, 225 159.500 C 225 157.938, 223.817 157.516, 222.667 158.667 M 242.443 162.418 C 240.153 164.092, 241.342 165.905, 243.738 164.393 C 245.611 163.212, 246.612 161, 245.274 161 C 244.784 161, 243.509 161.638, 242.443 162.418 M 163.496 167.007 C 162.736 168.236, 165.488 169.434, 166.968 168.520 C 167.554 168.158, 167.774 167.443, 167.457 166.931 C 166.694 165.696, 164.277 165.742, 163.496 167.007 M 225.766 174.381 C 224.812 175.105, 224.298 175.964, 224.623 176.290 C 225.322 176.989, 229 174.862, 229 173.759 C 229 172.643, 227.734 172.886, 225.766 174.381" stroke="none" fill="black" fill-rule="evenodd"/>
</svg>