<svg xmlns="http://www.w3.org/2000/svg" width="248" height="245" viewBox="0 0 248 245" version="1.1">
	<path d="M 64.654 17.708 C 61.485 18.525, 59 21.334, 59 24.100 C 59 25.560, 58.325 27.315, 57.500 28 C 55.467 29.687, 55.612 31, 57.831 31 C 58.838 31, 60.268 32.132, 61.009 33.516 C 62.166 35.679, 62.120 36.526, 60.678 39.550 C 57.364 46.498, 59.392 56.631, 65.790 65.106 C 69.216 69.644, 71.297 71.265, 77.053 73.886 C 83.372 76.762, 84.314 77.567, 86.021 81.550 C 87.386 84.734, 88.508 86, 89.964 86 C 92.403 86, 92.571 87.995, 90.474 92.050 C 89.341 94.241, 88.235 95, 86.174 95 C 84.648 95, 82.897 95.503, 82.282 96.118 C 81.668 96.732, 75.615 99.126, 68.832 101.436 C 62.050 103.747, 54.605 106.619, 52.290 107.819 C 47.167 110.473, 46.177 110.566, 48.325 108.194 C 51.448 104.742, 48.590 98.389, 43.483 97.431 C 39.558 96.694, 36.074 98.431, 33.453 102.431 C 31.397 105.570, 32.971 111.965, 36.637 115.364 L 39.200 117.741 36.622 121.637 C 33.619 126.175, 32.115 132, 33.946 132 C 34.716 132, 34.582 132.561, 33.571 133.571 C 31.588 135.555, 31.580 141.209, 33.551 146.870 C 35.904 153.626, 37.447 156.080, 42.926 161.774 C 47.365 166.387, 48 167.567, 48 171.203 C 48 173.488, 47.494 176.757, 46.876 178.467 C 45.906 181.148, 46.097 182.259, 48.264 186.538 C 51.654 193.232, 54 201.451, 54 206.634 C 54 214.150, 57.245 218, 63.578 218 C 67.052 218, 67.438 216.081, 65.511 208.398 C 63.006 198.409, 63.069 191.312, 65.709 185.970 C 66.924 183.511, 68.168 180.268, 68.475 178.763 C 68.781 177.257, 70.049 175.358, 71.293 174.544 C 73.287 173.237, 74.134 173.236, 78.436 174.531 C 84.160 176.253, 93.061 176.440, 98.007 174.941 C 105.263 172.742, 115.735 170.171, 122.181 169.007 C 129.952 167.603, 135.135 168.750, 137.528 172.403 C 140.617 177.116, 144.977 194.281, 144.989 201.771 C 144.999 208.484, 145.186 209.127, 147.415 210.143 C 148.744 210.749, 150.050 212.084, 150.318 213.110 C 150.797 214.938, 155.769 217.564, 156.800 216.533 C 157.088 216.245, 156.862 212.070, 156.298 207.255 C 154.645 193.143, 157.190 177.895, 162.259 171.542 C 164.889 168.246, 173.711 161.752, 179.923 158.540 C 182.590 157.161, 184.019 157.015, 187.137 157.807 C 191.750 158.978, 200.952 156.929, 210.671 152.567 C 216.025 150.164, 217 149.289, 218.399 145.625 C 220.426 140.317, 220.408 140, 218.077 140 C 213.954 140, 206.433 130.847, 204.620 123.623 C 204.043 121.322, 204.265 121, 206.437 121 C 207.798 121, 210.521 119.908, 212.489 118.572 C 214.456 117.237, 216.582 115.973, 217.213 115.762 C 219.012 115.163, 217.282 112, 215.154 112 C 214.104 112, 212.708 111.353, 212.052 110.563 C 211.146 109.471, 208.419 109.152, 200.703 109.237 C 195.117 109.299, 191.099 109.533, 191.773 109.758 C 193.277 110.259, 193.413 113, 191.934 113 C 189.632 113, 187 110.829, 187 108.930 C 187 107.262, 186.678 107.102, 185.066 107.965 C 184.002 108.534, 182.315 108.929, 181.316 108.841 C 180.317 108.754, 177.305 108.754, 174.622 108.842 L 169.744 109 170.423 113.250 C 170.797 115.588, 171.529 117.928, 172.051 118.450 C 173.432 119.833, 173.213 121, 171.571 121 C 168.913 121, 167.104 118.150, 167.600 114.743 C 167.860 112.959, 167.685 110.926, 167.211 110.224 C 166.719 109.495, 161.666 108.327, 155.425 107.499 C 149.416 106.703, 142.025 105.617, 139 105.087 C 135.975 104.556, 132.375 104.220, 131 104.340 C 129.625 104.460, 128.211 104.147, 127.857 103.644 C 127.504 103.141, 126.701 103.691, 126.072 104.865 C 124.783 107.274, 122.473 107.815, 123.362 105.500 C 123.678 104.675, 123.533 104, 123.040 104 C 122.547 104, 121.407 103.264, 120.508 102.365 C 119.122 100.979, 118.508 100.926, 116.475 102.013 C 114.359 103.146, 113.691 103.004, 110.789 100.804 C 108.516 99.081, 105.674 98.126, 101.592 97.712 C 93.992 96.940, 92.668 95.693, 94.188 90.740 C 95.539 86.336, 96.699 85.234, 104 81.412 C 107.025 79.829, 111.606 76.795, 114.181 74.669 C 118.926 70.751, 119.522 68.389, 115.913 67.808 C 114.488 67.579, 115.540 66.488, 119.997 63.569 C 123.299 61.407, 126 58.901, 126 58 C 126 57.100, 127.575 54.594, 129.499 52.432 C 133.204 48.269, 133.791 46.499, 131.750 45.641 C 130.932 45.296, 131.623 44.120, 133.750 42.235 C 137.472 38.936, 137.620 38.343, 135.345 35.829 C 133.802 34.124, 133.808 34, 135.428 34 C 136.384 34, 136.977 33.438, 136.746 32.750 C 136.514 32.063, 137.039 30.946, 137.912 30.269 C 139.314 29.182, 139.324 28.923, 138 28.055 C 137.175 27.515, 136.500 26.494, 136.500 25.786 C 136.500 25.079, 135.488 24.356, 134.250 24.180 C 133.012 24.005, 132 23.217, 132 22.430 C 132 19.325, 128.383 21.318, 122.094 27.889 C 116.231 34.014, 114.724 35.018, 108.500 36.938 C 93.559 41.549, 88.781 40.584, 82.260 31.637 C 77.808 25.529, 75.313 23.238, 72.177 22.381 C 70.899 22.032, 69.448 20.679, 68.952 19.373 C 68.030 16.949, 67.857 16.882, 64.654 17.708 M 121 38 C 121 38.550, 121.477 39, 122.059 39 C 122.641 39, 122.840 38.550, 122.500 38 C 122.160 37.450, 121.684 37, 121.441 37 C 121.198 37, 121 37.450, 121 38 M 111.500 55 C 111.840 55.550, 112.316 56, 112.559 56 C 112.802 56, 113 55.550, 113 55 C 113 54.450, 112.523 54, 111.941 54 C 111.359 54, 111.160 54.450, 111.500 55 M 110.232 72 C 109.231 73.602, 109.233 73.997, 110.242 73.985 C 112.359 73.959, 114.296 72.287, 113.569 71.112 C 112.569 69.493, 111.644 69.740, 110.232 72 M 39.200 102.200 C 36.340 105.060, 38.972 109.425, 43.195 108.827 C 46.168 108.405, 46.954 104.170, 44.404 102.306 C 42.184 100.683, 40.747 100.653, 39.200 102.200 M 101 102 C 101 102.550, 101.450 103, 102 103 C 102.550 103, 103 102.550, 103 102 C 103 101.450, 102.550 101, 102 101 C 101.450 101, 101 101.450, 101 102 M 130 109.032 C 130 110.156, 134.188 112.058, 134.998 111.302 C 135.564 110.773, 132.045 108, 130.809 108 C 130.364 108, 130 108.465, 130 109.032 M 38.500 111 C 40.462 113.168, 44.465 113.674, 45.566 111.893 C 46.016 111.165, 45.591 110.995, 44.323 111.398 C 43.263 111.734, 41.519 111.347, 40.448 110.536 C 37.608 108.389, 36.398 108.677, 38.500 111 M 180.489 111.018 C 179.574 112.498, 180.442 113.255, 182.577 112.838 C 184.140 112.534, 184.156 112.371, 182.745 111.201 C 181.620 110.269, 180.984 110.218, 180.489 111.018 M 199.500 115 C 197.743 116.941, 197.753 117, 199.845 117 C 201.030 117, 202 116.812, 202 116.582 C 202 116.352, 202.273 115.452, 202.607 114.582 C 203.457 112.368, 201.664 112.609, 199.500 115 M 125 119.500 C 123.945 120.771, 124.173 121, 126.500 121 C 128.827 121, 129.055 120.771, 128 119.500 C 127.315 118.675, 126.640 118, 126.500 118 C 126.360 118, 125.685 118.675, 125 119.500 M 153 123 C 153 123.550, 153.477 124, 154.059 124 C 154.641 124, 154.840 123.550, 154.500 123 C 154.160 122.450, 153.684 122, 153.441 122 C 153.198 122, 153 122.450, 153 123 M 183.500 127.666 C 181.742 129.075, 181.722 129.192, 183.332 128.635 C 184.339 128.286, 185.577 128, 186.082 128 C 186.587 128, 187 127.550, 187 127 C 187 125.584, 185.818 125.809, 183.500 127.666" stroke="none" fill="black" fill-rule="evenodd"/>
</svg>